<?xml version="1.0" encoding="utf-8"?>
<!-- Generator: Adobe Illustrator 24.1.0, SVG Export Plug-In . SVG Version: 6.00 Build 0)  -->
<svg version="1.1" id="layer1" xmlns="http://www.w3.org/2000/svg" xmlns:xlink="http://www.w3.org/1999/xlink" x="0px" y="0px"
	 viewBox="0 0 1196.1 661" style="enable-background:new 0 0 1196.1 661;" xml:space="preserve">
<style type="text/css">
	.st0{fill:#3A793A;}
	.st1{fill:#C28648;}
	.st2{fill:#FFFFFF;}
</style>
<g>
	<rect y="0" class="st0" width="1196" height="661"/>
	<g>
		<path class="st1" d="M813.2,394.8c-27.5-92.8-113.4-160.5-215.2-160.5c-101.7,0-187.6,67.7-215.2,160.5l189.4,189.4
			c-2,3.9-3.1,8.3-3.1,12.9c0,15.9,12.9,28.8,28.8,28.8c15.9,0,28.8-12.9,28.8-28.8c0-4.7-1.1-9-3.1-12.9L813.2,394.8z"/>
		<path class="st2" d="M441.3,527.7l-34.5-34.5l18.6-18.6l34.5,34.5L441.3,527.7z M409,493.2l32.3,32.3l16.4-16.4l-32.3-32.3
			L409,493.2z"/>
		<path class="st2" d="M758.7,527.6L740.1,509l34.5-34.5l18.6,18.6L758.7,527.6z M742.3,509l16.4,16.4l32.3-32.3l-16.4-16.4
			L742.3,509z"/>
		
			<rect x="452.3" y="447.4" transform="matrix(0.7072 -0.707 0.707 0.7072 -185.5142 454.8136)" class="st2" width="7.9" height="7.9"/>
		
			<rect x="735.7" y="447.6" transform="matrix(0.707 -0.7072 0.7072 0.707 -102.6379 655.3388)" class="st2" width="7.9" height="7.9"/>
		<circle class="st1" cx="598.1" cy="597.2" r="28.8"/>
		
			<rect x="594.1" y="306.2" transform="matrix(0.7071 -0.7071 0.7071 0.7071 -44.1592 513.7183)" class="st2" width="7.9" height="7.9"/>
		<path class="st0" d="M710.8,451.5c0-7.5,2.9-14.3,7.6-19.5L617.6,331.3c-5.1,4.8-12,7.7-19.6,7.7c-7.6,0-14.4-2.9-19.6-7.7
			L477.7,432.1c4.6,5.1,7.4,11.9,7.4,19.3c0,7.8-3.1,14.9-8.1,20.1l103.2,103.2c4.9-3.9,11.1-6.2,17.9-6.2s13,2.3,17.9,6.2l103-103
			C713.9,466.4,710.8,459.3,710.8,451.5z"/>
		<polygon class="st2" points="598.1,601 594.2,597.7 594.2,593.5 601.9,593.5 601.9,597.7 		"/>
		<g>
			<defs>
				<path id="SVGID_1_" d="M620.6,458.8c0,12.4-10.1,22.5-22.5,22.5c-12.4,0-22.5-10.1-22.5-22.5c0-12.4,10.1-22.5,22.5-22.5
					C610.5,436.3,620.6,446.4,620.6,458.8z"/>
			</defs>
			<use xlink:href="#SVGID_1_"  style="overflow:visible;fill:#C28648;"/>
			<clipPath id="SVGID_2_">
				<use xlink:href="#SVGID_1_"  style="overflow:visible;"/>
			</clipPath>
		</g>
		<rect x="593" y="457.5" class="st2" width="10.2" height="2.7"/>
		<path class="st2" d="M1195.9,0.2L612,584.8h-9.5v19.1h1.3v10.2h-11.5v-10.2h1.3v-19.1h-9.5L0.1,0.8V3l582.2,582.1v18.7h8.5v11.8
			h14.6v-11.8h8.5v-18.7L1195.9,2.4V0.2z M592.1,602.3h-8.3v-16h8.3V602.3z M612.3,602.3H604v-16h8.3V602.3z"/>
	</g>
</g>
</svg>
